<svg xmlns="http://www.w3.org/2000/svg" viewBox="0 0 1633.15 666.29"><defs><style>.cls-1,.cls-3{fill:#fff;}.cls-2{fill:#170dff;}.cls-3{font-size:265.37px;stroke:#fff;stroke-miterlimit:10;stroke-width:8px;font-family:BaskOldFace, Baskerville Old Face;}</style></defs><g id="Layer_2" data-name="Layer 2"><g id="Layer_2-2" data-name="Layer 2"><path class="cls-1" d="M263.38,79.53s37-21.17,55.55-7.94l-1.32-13.23S251.48,51.75,263.38,79.53Z"/><path class="cls-1" d="M91.64,176.8s-22.82,16.29-23.41,21l-8.52-4.55,31.93-23Z"/><path class="cls-1" d="M279.25,594s28.18,2.11,37.9-4.23-15.42,28-15.42,28S268.67,600.61,279.25,594Z"/><path class="cls-1" d="M277.59,593.05s11.31,1.61,12.44,1.28-12.44,2.76-12.44,2.76Z"/><path class="cls-2" d="M475.42,450.56h0l1.83-1.06.32-.23c-6.12,3-2,1,.21-.17,3.73-2.92,10.67-11.17,11.73-32.38l-1.3-185.1s1.33-13.62-11.9-20L437,190.86s-6.93-3.93-15.55.54l-.72.54L312.32,252.78a37.43,37.43,0,0,1-31.75,0l-45-26.45s-10.58-6.62,4-15.87L284.4,184s18.29-7.14,29.72,3.7c0,0,11.42,10.32,24.65,0l37-20.9s9.25-7.93-6.62-15.87L311,116.56s-16.91-6.62-28.95,0L131.13,203.84s-29.35,17.2,5.82,37,145,82,145,82,11.17,9.26,23.44,2.65,0,2.38,0,2.38l119.39-71.15s5.29-2.65,5.29,6.61V399.58s0,10.58-15.87,19.84L313.64,477.61s-26.45,10.58-45-7.94l-96.54-54.22s-13.23-4-10.58-25.13V313.61s2.64-9.25-13.23-17.19l-33.06-18.51S102,271.29,102,289.81V431.07S99.39,441.9,110,447.19l164,93.9s17.19,14.55,35.71,5.29l165.75-95.82Z"/><path class="cls-1" d="M61,240.87s-.34-40,16.36-53.06c0,0-26.94,1.49-26.94,20S57.07,240.87,61,240.87Z"/><path class="cls-1" d="M476.31,162.85s52.9,15.72,52.9,79.94c0,0,37-49.53,17.19-58.78S476.31,162.85,476.31,162.85Z"/><path class="cls-1" d="M476.31,162.85s52.9,43.1,52.9,81.06V181.33S481.6,156.23,476.31,162.85Z"/><path class="cls-1" d="M578.15,152.26,341.41,17.37c-1.93-1.4-3.79-2.69-5.61-3.92-1.07-.67-38.36-23.66-65.77-8L31.94,141.68C-1.13,154.91,0,178.49,0,178.49L1.47,449.72h0l.05,8c-.06.35-.1.68-.16,1,.32,15.16,3.27,45,21,55.2h0l256,148.77c22.88,7.94,32.67,0,32.67,0L568.89,516c26.45-15.87,21.68-27.49,21.68-27.49l-.52-122c4-26.45-15.87-14.55-15.87-14.55L546.4,366.52c-14.54,5.29-15.87,17.19-15.87,17.19v54.22c0,34.39-11.9,37-11.9,37L324.22,586.06c-41,22.48-45,7.93-45,7.93L76.9,478.93c-17.19-9.26-17.22-31.65-17.22-31.65L61,240.87c-6.61-43.64,13.23-54.22,13.23-54.22L263.38,79.53c31.74-30.42,55.55-7.94,55.55-7.94l157.38,91.26c72.74,31.74,52.9,54.81,52.9,54.81v80.28c0,31.94,34.39,13,34.39,13a98.33,98.33,0,0,0,18.08-8.68,7,7,0,0,1,.84-.54c.47-.31.92-.62,1.35-.92,6-5,7.08-19,7.08-19h0l0-111.43C591.77,163.38,578.15,152.26,578.15,152.26Z"/><path class="cls-1" d="M253.94,360.05l0,18.53,18.53,0-.05,18.52-18.53,0,0,18.53-18.53,0,0-18.53-18.51,0,0-18.53,18.52,0,0-18.52Zm105.14,38.3,0,18.52-18.53,0,.05-18.53Zm-17.57-37.09,0,18.52-18.52,0,0-18.53Z"/><text class="cls-3" transform="translate(732.86 415.13)">FORGE</text></g></g></svg>