<svg xmlns="http://www.w3.org/2000/svg" viewBox="0 0 472 175.68"><defs><style>.cls-1,.cls-3{fill:#fff;}.cls-1{stroke:#fff;stroke-miterlimit:10;}.cls-2{fill:#e62633;}.cls-3{font-size:68.01px;font-family:ROGFonts-Regular, ROG Fonts;}</style></defs><g id="Calque_2" data-name="Calque 2"><g id="Calque_1-2" data-name="Calque 1"><path class="cls-1" d="M138.79,85.6c.26,0,.51-.19.68-.38l14.34-7.83-.18-32.65c-1.55-1-3.84-2.56-6.63-4.37C143.26,38,137.08,34,118.88,23.26,116.24,21.7,100.36,12.33,92.17,7.9c-5.06-2.74-5-2.41-7.16-3.85C83.11,2.79,81.6,1.56,79.07.91A12.89,12.89,0,0,0,75.16.52Q37.92,22,.68,43.52L.5,132.14,74,174.65l5.24.52,74.21-42.95q.16-19.12.35-38.24l-2.41-1.74-14,8,.53,20.26L136,124.36,79.77,157.18l-5.58.18L18.66,124.88l-2.79-3.14q-.27-33.43-.53-66.88l4-4.71,55-31.78h4.72l54.65,31.08,3.49,4.37c.38,6.19.49,11.24.52,14.66C137.83,77.76,137.42,85.36,138.79,85.6Z"/><path class="cls-2" d="M26.58,75.41l-.12,40.74,47.26,28.52,5.7-.23,44.47-25.26,3.14-2.91.12-56.34-1.86-2.21L111.43,50,78.84,69l-4.42.11L59.87,60.28,59.63,58l15-9,3.26-.24,7,3.26L98,44.82l.35-1.74-.87-1.31L79.77,31.55l-5.93-.26L31.14,56.44l.09,4.62L73.4,86.29l6.46.09q15.93-9.3,31.87-18.59L111.64,108,79.42,126.72H73.49l-31.61-19L42,80.62,29.57,73.9a2.33,2.33,0,0,0-2.09.17A2.15,2.15,0,0,0,26.58,75.41Z"/><text class="cls-3" transform="translate(177.25 111.32)">FORGE</text></g></g></svg>