<?xml version="1.0" standalone="no"?>
<!DOCTYPE svg PUBLIC "-//W3C//DTD SVG 20010904//EN"
 "http://www.w3.org/TR/2001/REC-SVG-20010904/DTD/svg10.dtd">
<svg version="1.0" xmlns="http://www.w3.org/2000/svg"
 width="500.000000pt" height="500.000000pt" viewBox="0 0 500.000000 500.000000"
 preserveAspectRatio="xMidYMid meet">

<g transform="translate(0.000000,500.000000) scale(0.100000,-0.100000)"
fill="#000000" stroke="none">
<path d="M805 3171 c-40 -11 -563 -322 -569 -337 -3 -9 -6 -161 -6 -339 0
-293 2 -325 18 -343 22 -26 554 -332 576 -332 20 0 567 315 578 333 11 18 10
307 -2 307 -5 0 -30 -12 -55 -27 l-45 -28 0 -83 c0 -73 -3 -86 -22 -105 -13
-12 -119 -78 -236 -146 -195 -113 -215 -123 -238 -112 -47 21 -424 243 -439
258 -13 12 -15 59 -15 282 0 243 2 269 18 283 30 26 424 251 448 256 27 5 459
-239 474 -268 6 -10 10 -71 10 -134 0 -64 4 -116 9 -116 5 0 29 12 55 26 l46
26 0 132 c0 114 -2 135 -17 148 -24 20 -515 305 -545 316 -12 5 -32 6 -43 3z"/>
<path d="M775 2919 c-114 -61 -297 -174 -302 -186 -3 -7 0 -19 6 -27 17 -21
326 -196 345 -196 10 0 71 32 136 70 65 39 121 70 124 70 3 0 6 -71 6 -157 l0
-158 -130 -73 c-97 -56 -134 -72 -151 -67 -12 4 -74 38 -138 75 l-116 68 -3
109 -3 108 -49 28 c-28 15 -52 27 -55 27 -3 0 -5 -76 -5 -169 l0 -170 93 -54
c207 -122 272 -157 292 -157 11 0 102 48 203 106 l182 106 0 223 0 224 -27 19
c-16 11 -42 27 -60 36 l-32 16 -120 -70 c-68 -40 -131 -70 -147 -70 -33 0
-134 56 -134 75 0 7 25 27 56 45 56 31 73 33 129 15 23 -7 120 49 110 65 -7
11 -148 90 -161 90 -5 0 -27 -10 -49 -21z"/>
<path d="M1803 2700 c-46 -27 -53 -67 -53 -287 l0 -193 50 0 50 0 0 100 0 100
200 0 200 0 0 50 0 50 -200 0 -200 0 0 50 0 50 200 0 200 0 0 50 0 50 -207 0
c-188 0 -211 -2 -240 -20z"/>
<path d="M2415 2711 c-11 -5 -29 -19 -40 -31 -19 -20 -20 -36 -20 -211 l0
-189 28 -27 27 -28 190 0 190 0 27 28 28 27 0 190 0 190 -28 27 -27 28 -178 2
c-97 1 -186 -1 -197 -6z m335 -241 l0 -150 -150 0 -150 0 0 150 0 150 150 0
150 0 0 -150z"/>
<path d="M2950 2470 l0 -250 50 0 50 0 0 100 0 100 27 0 c21 0 50 -23 128
-100 l102 -100 65 0 66 0 4 33 c7 60 1 67 -51 67 -43 0 -51 4 -95 49 l-48 49
72 4 c64 3 75 7 96 31 21 25 24 38 24 113 0 150 -8 154 -285 154 l-205 0 0
-250z m400 100 l0 -50 -150 0 -150 0 0 50 0 50 150 0 150 0 0 -50z"/>
<path d="M3593 2700 c-46 -28 -55 -74 -51 -255 3 -164 13 -196 64 -215 14 -6
97 -10 186 -10 237 0 248 8 248 190 l0 110 -150 0 -150 0 0 -50 0 -50 100 0
100 0 0 -50 0 -50 -150 0 -150 0 0 150 0 150 200 0 200 0 0 50 0 50 -207 0
c-189 0 -211 -2 -240 -20z"/>
<path d="M4205 2711 c-11 -5 -29 -19 -40 -31 -19 -20 -20 -36 -20 -211 l0
-189 28 -27 27 -28 220 -3 220 -3 0 50 0 51 -200 0 -200 0 0 50 0 50 200 0
200 0 0 50 0 50 -200 0 -200 0 0 50 0 50 200 0 200 0 0 50 0 50 -207 -1 c-115
0 -217 -4 -228 -8z"/>
</g>
</svg>
